<svg width="24" height="24" viewBox="0 0 24 24" fill="none" xmlns="http://www.w3.org/2000/svg">
<path d="M12 23C18.0751 23 23 18.0751 23 12C23 5.92487 18.0751 1 12 1C5.92487 1 1 5.92487 1 12C1 18.0751 5.92487 23 12 23Z" stroke="white" stroke-width="2" stroke-linecap="round" stroke-linejoin="round"/>
<path d="M9 19H15" stroke="white" stroke-width="2" stroke-linecap="round" stroke-linejoin="round"/>
<path d="M10 10H12V18.5" stroke="white" stroke-width="2" stroke-linecap="round" stroke-linejoin="round"/>
<path d="M11.5 5.5C11.22 5.5 11 5.72 11 6C11 6.28 11.22 6.5 11.5 6.5C11.78 6.5 12 6.28 12 6C12 5.72 11.77 5.5 11.5 5.5Z" fill="white" stroke="white" stroke-width="2" stroke-linejoin="round"/>
</svg>
