<svg width="40" height="40" viewBox="0 0 40 40" fill="none" xmlns="http://www.w3.org/2000/svg">
<path d="M38.7525 0H14.9868C14.2986 0 13.7393 0.549647 13.7393 1.22586V12.2766H26.2992C26.9874 12.2766 27.5468 12.8263 27.5468 13.5025V25.8045H38.7525C39.4407 25.8045 40 25.2548 40 24.5786V1.22586C40 0.549647 39.4407 0 38.7525 0Z" fill="white"/>
<path d="M13.7392 12.2766H13.6178C5.88602 12.3707 -0.318533 18.7241 0.0126707 26.3939C0.314434 33.3296 6.16202 39.0538 13.224 39.3214C21.0662 39.6179 27.5431 33.4453 27.5431 25.8045H14.9868C14.2986 25.8045 13.7392 25.2548 13.7392 24.5786V12.2766Z" fill="white"/>
<path d="M25.0479 17.4802C24.9265 17.0824 24.7057 16.7606 24.3929 16.5219C24.0801 16.2833 23.6385 16.1603 23.0791 16.1603C22.7369 16.1603 22.413 16.2326 22.1112 16.3701C21.8132 16.5075 21.5556 16.6847 21.3421 16.8944C21.2207 17.0137 21.114 17.1367 21.0256 17.256C20.9079 17.0029 20.7496 16.7859 20.5509 16.6051C20.2197 16.3086 19.7487 16.1567 19.1488 16.1567C18.8654 16.1567 18.5968 16.2073 18.3502 16.3014C18.111 16.3954 17.8866 16.5183 17.6915 16.6702C17.5774 16.757 17.4744 16.851 17.3787 16.9486C17.3787 16.7534 17.3088 16.587 17.1726 16.4568C17.0365 16.323 16.8672 16.2543 16.6721 16.2543C16.4771 16.2543 16.2968 16.323 16.1643 16.4568C16.0318 16.5906 15.9656 16.757 15.9656 16.9559V21.7725C15.9656 21.9714 16.0318 22.1413 16.1606 22.2715C16.2931 22.4053 16.4624 22.474 16.6685 22.474C16.8745 22.474 17.0328 22.4053 17.1689 22.2715C17.3051 22.1377 17.375 21.9714 17.375 21.7689V18.7603C17.375 18.518 17.4339 18.2938 17.548 18.0949C17.6621 17.8961 17.8277 17.7369 18.0374 17.6176C18.2472 17.5019 18.4974 17.4404 18.7734 17.4404C19.0495 17.4404 19.285 17.4983 19.4395 17.6104C19.5978 17.7261 19.7045 17.8744 19.7707 18.0732C19.8407 18.2794 19.8738 18.5108 19.8738 18.7603V21.7689C19.8738 21.9678 19.94 22.1377 20.0725 22.2679C20.205 22.4017 20.3743 22.4704 20.5803 22.4704C20.7864 22.4704 20.9557 22.4017 21.0882 22.2679C21.2207 22.1341 21.2869 21.9678 21.2869 21.7689V18.7711C21.2869 18.5289 21.3458 18.3047 21.4672 18.1058C21.585 17.9069 21.7543 17.7442 21.9714 17.6212C22.1848 17.5019 22.4351 17.4404 22.7111 17.4404C22.9871 17.4404 23.2226 17.4983 23.3809 17.614C23.5428 17.7333 23.6532 17.8852 23.7194 18.0805C23.7893 18.2866 23.8225 18.518 23.8225 18.7675V21.7653C23.8225 21.9642 23.8924 22.1341 24.0285 22.2679C24.1647 22.4017 24.334 22.4704 24.529 22.4704C24.7241 22.4704 24.9044 22.4017 25.0369 22.2679C25.1694 22.1341 25.2356 21.9678 25.2356 21.7689V18.7603C25.2356 18.2902 25.1767 17.8563 25.0553 17.4694L25.0479 17.4802Z" fill="white"/>
</svg>
