<svg width="110" height="22" viewBox="0 0 110 22" fill="none" xmlns="http://www.w3.org/2000/svg">
<path d="M21.6747 0H8.38163C7.99671 0 7.68384 0.307438 7.68384 0.685667V6.86678H14.7091C15.094 6.86678 15.4069 7.17422 15.4069 7.55245V14.4334H21.6747C22.0596 14.4334 22.3725 14.126 22.3725 13.7477V0.685667C22.3725 0.307438 22.0596 0 21.6747 0V0Z" fill="white"/>
<path d="M7.68388 6.86682H7.61595C3.29129 6.91941 -0.179144 10.4731 0.00611061 14.7631C0.174898 18.6425 3.44567 21.8443 7.39571 21.994C11.7821 22.1598 15.4049 18.7072 15.4049 14.4334H8.38167C7.99675 14.4334 7.68388 14.126 7.68388 13.7478V6.86682Z" fill="white"/>
<path d="M14.0093 9.77739C13.9414 9.5549 13.8179 9.37489 13.6429 9.24139C13.4679 9.1079 13.2209 9.03913 12.9081 9.03913C12.7166 9.03913 12.5355 9.07958 12.3667 9.15644C12.2 9.2333 12.0559 9.33241 11.9365 9.44972C11.8686 9.51647 11.8089 9.58524 11.7595 9.65198C11.6936 9.5104 11.6051 9.38904 11.4939 9.28791C11.3087 9.12206 11.0452 9.03711 10.7097 9.03711C10.5512 9.03711 10.4009 9.06543 10.263 9.11801C10.1292 9.1706 10.0037 9.23937 9.89458 9.32432C9.83077 9.37286 9.77314 9.42545 9.71962 9.48006C9.71962 9.37084 9.68051 9.2778 9.60435 9.20499C9.52819 9.13015 9.4335 9.09172 9.32441 9.09172C9.21531 9.09172 9.11445 9.13015 9.04035 9.20499C8.96625 9.27982 8.9292 9.37286 8.9292 9.48411V12.1782C8.9292 12.2895 8.96625 12.3845 9.03829 12.4574C9.1124 12.5322 9.20708 12.5706 9.32235 12.5706C9.43762 12.5706 9.52613 12.5322 9.60229 12.4574C9.67845 12.3825 9.71756 12.2895 9.71756 12.1762V10.4934C9.71756 10.3579 9.75049 10.2325 9.8143 10.1212C9.87811 10.01 9.97074 9.92099 10.0881 9.85425C10.2054 9.78952 10.3454 9.75514 10.4997 9.75514C10.6541 9.75514 10.7859 9.7875 10.8723 9.8502C10.9608 9.91493 11.0205 9.99785 11.0576 10.1091C11.0967 10.2244 11.1152 10.3538 11.1152 10.4934V12.1762C11.1152 12.2875 11.1523 12.3825 11.2264 12.4553C11.3005 12.5302 11.3951 12.5686 11.5104 12.5686C11.6257 12.5686 11.7204 12.5302 11.7945 12.4553C11.8686 12.3805 11.9056 12.2875 11.9056 12.1762V10.4995C11.9056 10.3639 11.9386 10.2385 12.0065 10.1273C12.0724 10.0161 12.167 9.92504 12.2885 9.85627C12.4079 9.78952 12.5478 9.75514 12.7022 9.75514C12.8566 9.75514 12.9883 9.7875 13.0768 9.85222C13.1674 9.91897 13.2292 10.0039 13.2662 10.1131C13.3053 10.2284 13.3238 10.3579 13.3238 10.4974V12.1742C13.3238 12.2854 13.363 12.3805 13.4391 12.4553C13.5153 12.5302 13.61 12.5686 13.7191 12.5686C13.8282 12.5686 13.929 12.5302 14.0031 12.4553C14.0772 12.3805 14.1143 12.2875 14.1143 12.1762V10.4934C14.1143 10.2305 14.0813 9.98774 14.0134 9.77132L14.0093 9.77739Z" fill="white"/>
<path d="M38.856 6.7373C38.2735 6.7373 37.6704 6.90316 37.0632 7.2288C36.5383 7.51197 36.1534 7.85177 35.9146 8.24618C35.7026 7.78704 35.3959 7.42702 35.0007 7.17419C34.5499 6.88496 34.0291 6.73933 33.4528 6.73933C32.9197 6.73933 32.403 6.87889 31.9172 7.15599C31.5282 7.37847 31.1947 7.65153 30.923 7.97515V7.2288C30.923 7.12362 30.886 7.03058 30.8119 6.9517C30.7357 6.8708 30.6369 6.82832 30.5155 6.82832C30.4064 6.82832 30.3096 6.86877 30.2294 6.94766C30.1491 7.02654 30.1079 7.1216 30.1079 7.2288V14.0936C30.1079 14.1987 30.145 14.2918 30.2191 14.3707C30.2952 14.4516 30.394 14.494 30.5155 14.494C30.6246 14.494 30.7213 14.4536 30.8016 14.3747C30.8819 14.2958 30.923 14.2008 30.923 14.0936V9.72673C30.923 9.34041 31.0465 8.97432 31.2915 8.63452C31.5385 8.29067 31.8617 8.01358 32.2527 7.81334C32.6418 7.6131 33.0452 7.50994 33.4528 7.50994C34.095 7.50994 34.5808 7.71221 34.8937 8.11268C35.2127 8.52125 35.3753 9.06331 35.3753 9.72673V14.0936C35.3753 14.1987 35.4124 14.2918 35.4865 14.3707C35.5626 14.4516 35.6614 14.494 35.7829 14.494C35.9043 14.494 36.0031 14.4536 36.0793 14.3707C36.1534 14.2918 36.1904 14.1987 36.1904 14.0936V9.80157C36.1904 9.39705 36.318 9.01679 36.5671 8.67093C36.8203 8.32101 37.1538 8.03785 37.5593 7.82749C37.9627 7.61714 38.3805 7.50994 38.7963 7.50994C39.4694 7.50994 39.9779 7.7203 40.3051 8.13696C40.6386 8.55968 40.8094 9.11995 40.8094 9.80157V14.0936C40.8094 14.1987 40.8465 14.2918 40.9206 14.3707C40.9947 14.4516 41.0976 14.494 41.217 14.494C41.3364 14.494 41.4372 14.4536 41.5134 14.3707C41.5875 14.2918 41.6246 14.1987 41.6246 14.0936V9.74089C41.6246 8.86307 41.3879 8.13696 40.9247 7.58276C40.4554 7.02249 39.7597 6.73933 38.8602 6.73933L38.856 6.7373Z" fill="white"/>
<path d="M45.202 4.49426C45.0147 4.49426 44.8582 4.54887 44.7368 4.65405C44.6133 4.76327 44.5515 4.90485 44.5515 5.07273V5.19207C44.5515 5.35994 44.6112 5.4995 44.7285 5.60872C44.8438 5.71592 44.9982 5.77053 45.1876 5.77053C45.3666 5.77053 45.5148 5.71592 45.6301 5.60872C45.7474 5.4995 45.8071 5.35994 45.8071 5.19207V5.07273C45.8071 4.90485 45.7474 4.76529 45.6301 4.65607C45.5148 4.54887 45.3708 4.49426 45.202 4.49426Z" fill="white"/>
<path d="M45.1876 6.58765C45.0785 6.58765 44.9818 6.6281 44.9015 6.70698C44.8212 6.78586 44.78 6.88093 44.78 6.98812V14.0916C44.78 14.1967 44.8171 14.2898 44.8912 14.3687C44.9673 14.4496 45.0661 14.492 45.1876 14.492C45.2967 14.492 45.3934 14.4516 45.4737 14.3727C45.554 14.2938 45.5951 14.1988 45.5951 14.0916V6.98812C45.5951 6.88295 45.5581 6.78991 45.484 6.71103C45.4078 6.63012 45.309 6.58765 45.1876 6.58765Z" fill="white"/>
<path d="M49.2345 3.224C49.1254 3.224 49.0286 3.26445 48.9483 3.34333C48.8681 3.42222 48.8269 3.51728 48.8269 3.62448V14.0935C48.8269 14.1987 48.864 14.2918 48.9381 14.3706C49.0142 14.4515 49.113 14.494 49.2345 14.494C49.3436 14.494 49.4403 14.4536 49.5206 14.3747C49.6009 14.2958 49.642 14.2007 49.642 14.0935V3.62448C49.642 3.5193 49.605 3.42626 49.5309 3.34738C49.4547 3.26647 49.3559 3.224 49.2345 3.224V3.224Z" fill="white"/>
<path d="M53.3595 3.224C53.2504 3.224 53.1536 3.26445 53.0733 3.34333C52.9931 3.42222 52.9519 3.51728 52.9519 3.62448V14.0935C52.9519 14.1987 52.989 14.2918 53.0631 14.3706C53.1392 14.4515 53.238 14.494 53.3595 14.494C53.4686 14.494 53.5653 14.4536 53.6456 14.3747C53.7259 14.2958 53.767 14.2007 53.767 14.0935V3.62448C53.767 3.5193 53.73 3.42626 53.6559 3.34738C53.5797 3.26647 53.4809 3.224 53.3595 3.224V3.224Z" fill="white"/>
<path d="M62.9927 10.5155C63.1038 10.5155 63.2006 10.471 63.2809 10.3861C63.3591 10.3011 63.4003 10.206 63.4003 10.0988C63.3797 9.33631 63.2006 8.68503 62.8671 8.1632C62.5337 7.64136 62.0973 7.24493 61.5703 6.98199C61.0455 6.72107 60.4691 6.5896 59.8578 6.5896C59.2464 6.5896 58.6557 6.75545 58.1143 7.08312C57.573 7.41078 57.1325 7.89014 56.8052 8.50502C56.48 9.11989 56.3132 9.84197 56.3132 10.653C56.3132 11.4641 56.4841 12.1498 56.8217 12.7505C57.1592 13.3532 57.6368 13.8245 58.2399 14.1501C58.8409 14.4758 59.5387 14.6416 60.3147 14.6416C60.8973 14.6416 61.453 14.496 61.9635 14.2088C62.4719 13.9236 62.9021 13.5514 63.2397 13.1065C63.2953 13.0377 63.3241 12.9568 63.3241 12.8638C63.3241 12.7707 63.2891 12.6837 63.2212 12.6089C63.1512 12.5341 63.0627 12.4936 62.9618 12.4936C62.8301 12.4936 62.7107 12.5543 62.6181 12.6736C62.3855 13.0175 62.0561 13.3067 61.6424 13.5312C61.2287 13.7557 60.782 13.869 60.3147 13.869C59.6375 13.869 59.0509 13.7234 58.5733 13.4362C58.0958 13.1489 57.7294 12.7525 57.4865 12.259C57.2416 11.7614 57.116 11.2052 57.116 10.6065V10.5135H62.9947L62.9927 10.5155ZM59.8578 7.39056C60.2859 7.39056 60.7038 7.4836 61.099 7.66563C61.4921 7.84767 61.8276 8.11667 62.0952 8.46456C62.3608 8.81245 62.5213 9.23518 62.5687 9.71252V9.7469H57.1963C57.3013 9.26754 57.4886 8.85291 57.7541 8.51109C58.0423 8.14095 58.3778 7.8598 58.7545 7.6717C59.1291 7.48562 59.4996 7.39056 59.8578 7.39056V7.39056Z" fill="white"/>
<path d="M71.6996 7.40883C71.2241 6.86475 70.5119 6.58765 69.5815 6.58765C69.0299 6.58765 68.4721 6.73732 67.9266 7.03464C67.4861 7.27331 67.1218 7.56862 66.8398 7.91651V7.22679C66.8398 7.12162 66.8027 7.02858 66.7286 6.9497C66.5845 6.79395 66.3169 6.7798 66.1461 6.94565C66.0658 7.02453 66.0247 7.11959 66.0247 7.22679V14.0916C66.0247 14.1967 66.0617 14.2898 66.1358 14.3687C66.212 14.4496 66.3108 14.492 66.4322 14.492C66.5413 14.492 66.6381 14.4516 66.7183 14.3727C66.7986 14.2938 66.8398 14.1988 66.8398 14.0916V9.57505C66.8398 9.19075 66.9715 8.82466 67.2309 8.48486C67.4943 8.14102 67.8381 7.86392 68.2518 7.66166C68.6656 7.45939 69.0937 7.35826 69.5218 7.35826C70.2155 7.35826 70.7404 7.56457 71.078 7.97112C71.4217 8.38373 71.5946 8.92377 71.5946 9.57505V14.0916C71.5946 14.1967 71.6317 14.2898 71.7058 14.3687C71.782 14.4496 71.8808 14.492 72.0022 14.492C72.1113 14.492 72.208 14.4516 72.2883 14.3727C72.3686 14.2938 72.4098 14.1988 72.4098 14.0916V9.51437C72.4098 8.65678 72.171 7.94684 71.6996 7.40681V7.40883Z" fill="white"/>
<path d="M81.2423 7.40883C80.7669 6.86475 80.0547 6.58765 79.1243 6.58765C78.5726 6.58765 78.0148 6.73732 77.4693 7.03464C77.0288 7.27331 76.6645 7.56862 76.3825 7.91651V7.22679C76.3825 7.12162 76.3455 7.02858 76.2714 6.9497C76.1952 6.86879 76.0964 6.82632 75.9749 6.82632C75.8659 6.82632 75.7691 6.86677 75.6888 6.94565C75.6085 7.02453 75.5674 7.11959 75.5674 7.22679V14.0916C75.5674 14.1967 75.6044 14.2898 75.6785 14.3687C75.7547 14.4496 75.8535 14.492 75.9749 14.492C76.084 14.492 76.1808 14.4516 76.2611 14.3727C76.3413 14.2938 76.3825 14.1988 76.3825 14.0916V9.57505C76.3825 9.19075 76.5142 8.82466 76.7736 8.48486C77.0371 8.14102 77.3808 7.86392 77.7946 7.66166C78.2083 7.45939 78.6364 7.35826 79.0646 7.35826C79.7582 7.35826 80.2831 7.56457 80.6207 7.97112C80.9645 8.38373 81.1374 8.92377 81.1374 9.57505V14.0916C81.1374 14.1967 81.1744 14.2898 81.2485 14.3687C81.3247 14.4496 81.4235 14.492 81.5449 14.492C81.654 14.492 81.7508 14.4516 81.831 14.3727C81.9113 14.2938 81.9525 14.1988 81.9525 14.0916V9.51437C81.9525 8.65678 81.7137 7.94684 81.2423 7.40681V7.40883Z" fill="white"/>
<path d="M85.532 4.49426C85.3447 4.49426 85.1883 4.54887 85.0668 4.65405C84.9433 4.76327 84.8816 4.90485 84.8816 5.07273V5.19207C84.8816 5.35994 84.9413 5.4995 85.0586 5.60872C85.1739 5.71592 85.3283 5.77053 85.5176 5.77053C85.6967 5.77053 85.8449 5.71592 85.9622 5.60872C86.0796 5.4995 86.1393 5.35994 86.1393 5.19207V5.07273C86.1393 4.90485 86.0796 4.76529 85.9622 4.65607C85.847 4.54887 85.7029 4.49426 85.5341 4.49426H85.532Z" fill="white"/>
<path d="M85.2313 6.70693C85.151 6.78581 85.1099 6.88087 85.1099 6.98807V14.0915C85.1099 14.1967 85.1469 14.2897 85.221 14.3686C85.2972 14.4495 85.396 14.492 85.5174 14.492C85.6265 14.492 85.7233 14.4515 85.8035 14.3726C85.8838 14.2938 85.925 14.1987 85.925 14.0915V6.98807C85.925 6.8829 85.8879 6.78986 85.8138 6.71097C85.6697 6.55523 85.4022 6.54107 85.2313 6.70693Z" fill="white"/>
<path d="M95.2188 6.94967C95.1426 6.86877 95.0438 6.82629 94.9224 6.82629C94.801 6.82629 94.7001 6.86877 94.626 6.94967C94.5519 7.02856 94.5148 7.1216 94.5148 7.22677V11.5794C94.5148 12.2954 94.3111 12.8517 93.9076 13.2339C93.5042 13.6162 92.9278 13.8104 92.1992 13.8104C91.4705 13.8104 90.9086 13.6162 90.5051 13.2339C90.1017 12.8517 89.8979 12.2954 89.8979 11.5794V7.22677C89.8979 7.1216 89.8608 7.02856 89.7867 6.94967C89.7106 6.86877 89.6118 6.82629 89.4903 6.82629C89.3812 6.82629 89.2845 6.86675 89.2042 6.94563C89.1239 7.02451 89.0828 7.11957 89.0828 7.22677V11.5794C89.0828 12.5523 89.3648 13.3027 89.9226 13.8144C90.4783 14.3241 91.2441 14.581 92.1992 14.581C93.1542 14.581 93.9241 14.3221 94.484 13.8144C95.0459 13.3027 95.332 12.5503 95.332 11.5794V7.22677C95.332 7.1216 95.295 7.02856 95.2209 6.94967H95.2188Z" fill="white"/>
<path d="M109.3 7.58269C108.831 7.02242 108.135 6.73926 107.235 6.73926C106.653 6.73926 106.05 6.90511 105.443 7.23075C104.918 7.51392 104.533 7.85372 104.294 8.24813C104.082 7.789 103.775 7.42897 103.38 7.17614C102.929 6.88691 102.409 6.74128 101.832 6.74128C101.299 6.74128 100.782 6.88084 100.297 7.15794C99.9076 7.38043 99.5741 7.65348 99.3024 7.9771V7.23075C99.3024 7.12558 99.2654 7.03254 99.1913 6.95366C99.1151 6.87275 99.0163 6.83028 98.8949 6.83028C98.7858 6.83028 98.689 6.87073 98.6087 6.94961C98.5285 7.02849 98.4873 7.12356 98.4873 7.23075V14.0955C98.4873 14.2007 98.5244 14.2937 98.5985 14.3726C98.6746 14.4535 98.7734 14.496 98.8949 14.496C99.004 14.496 99.1007 14.4555 99.181 14.3767C99.2613 14.2978 99.3024 14.2027 99.3024 14.0955V9.72868C99.3024 9.34237 99.4259 8.97627 99.6709 8.63647C99.9199 8.29263 100.243 8.01553 100.632 7.81529C101.021 7.61505 101.425 7.5119 101.832 7.5119C102.474 7.5119 102.96 7.71416 103.273 8.11464C103.592 8.52321 103.755 9.06527 103.755 9.72868V14.0955C103.755 14.2007 103.792 14.2937 103.866 14.3726C103.94 14.4535 104.043 14.496 104.162 14.496C104.282 14.496 104.383 14.4555 104.459 14.3726C104.533 14.2937 104.57 14.2007 104.57 14.0955V9.80352C104.57 9.399 104.697 9.01875 104.947 8.67288C105.2 8.32297 105.533 8.0398 105.939 7.82945C106.342 7.6191 106.76 7.5119 107.176 7.5119C107.849 7.5119 108.357 7.72225 108.685 8.13891C109.018 8.56164 109.189 9.1219 109.189 9.80352V14.0955C109.189 14.2007 109.226 14.2937 109.3 14.3726C109.376 14.4535 109.475 14.496 109.596 14.496C109.718 14.496 109.817 14.4555 109.893 14.3726C109.967 14.2937 110.004 14.2007 110.004 14.0955V9.74284C110.004 8.86503 109.767 8.13891 109.304 7.58471L109.3 7.58269Z" fill="white"/>
</svg>
