<svg width="24" height="24" viewBox="0 0 24 24" fill="none" xmlns="http://www.w3.org/2000/svg">
<path d="M11.9999 15.9286C14.2078 15.9286 15.9977 14.1697 15.9977 12C15.9977 9.83029 14.2078 8.07141 11.9999 8.07141C9.79205 8.07141 8.0022 9.83029 8.0022 12C8.0022 14.1697 9.79205 15.9286 11.9999 15.9286Z" stroke="white" stroke-width="2" stroke-miterlimit="10"/>
<path d="M20.6831 13.3043L22.602 14.3886C22.9858 14.6086 23.1137 15.08 22.8898 15.4571L20.4912 19.5429C20.2673 19.92 19.7876 20.0457 19.4038 19.8257L17.4849 18.7414C16.8133 19.2757 16.0457 19.7157 15.1982 20.0457V22.2143C15.1982 22.6543 14.8464 23 14.3986 23H9.60136C9.15361 23 8.80181 22.6543 8.80181 22.2143V20.03C7.97028 19.7157 7.20271 19.2757 6.5151 18.7414L4.59619 19.8257C4.21241 20.0457 3.73268 19.92 3.5088 19.5429L1.11016 15.4571C0.886287 15.08 1.01421 14.5929 1.398 14.3886L3.31691 13.3043C3.17299 12.4243 3.18898 11.56 3.31691 10.7114L1.398 9.62714C1.01421 9.40714 0.886287 8.92 1.11016 8.55857L3.5088 4.47286C3.73268 4.09571 4.21241 3.97 4.59619 4.19L6.5151 5.27429C7.18672 4.74 7.95429 4.3 8.80181 3.97V1.78571C8.80181 1.34571 9.15361 1 9.60136 1H14.3986C14.8464 1 15.1982 1.34571 15.1982 1.78571V3.97C16.0297 4.28429 16.7973 4.72429 17.4849 5.25857L19.4038 4.17429C19.7876 3.95429 20.2833 4.08 20.4912 4.45714L22.8898 8.54286C23.1137 8.92 22.9858 9.40714 22.602 9.61143L20.6831 10.6957C20.827 11.5757 20.811 12.44 20.6831 13.2886V13.3043Z" stroke="white" stroke-width="2" stroke-miterlimit="10"/>
</svg>
